<!-- Lucide "hard-drive" (ISC), on a tile. Notice: licenses/lucide.txt -->
<svg xmlns="http://www.w3.org/2000/svg" width="48" height="48" viewBox="0 0 48 48"><rect width="48" height="48" rx="8" fill="#1B8BD6"/><g transform="translate(10 10) scale(1.1667)" fill="none" stroke="#fff" stroke-width="2" stroke-linecap="round" stroke-linejoin="round"><path d="M10 16h.01" />
  <path d="M2.212 11.577a2 2 0 0 0-.212.896V18a2 2 0 0 0 2 2h16a2 2 0 0 0 2-2v-5.527a2 2 0 0 0-.212-.896L18.55 5.11A2 2 0 0 0 16.76 4H7.24a2 2 0 0 0-1.79 1.11z" />
  <path d="M21.946 12.013H2.054" />
  <path d="M6 16h.01" /></g></svg>
